<svg width="1920" height="850" viewBox="0 0 1920 850" fill="none" xmlns="http://www.w3.org/2000/svg">
<rect width="981" height="850" fill="#152843"/>
<path d="M0 0L183.966 153.153L295.032 95.319L484.15 126.429L550.483 56.423L668.846 0H711.406L571.535 68.323L490.519 171.258L321.009 137.972L176.366 219.436L0 93.33V0ZM130.766 0L228.365 66.623L290.882 32.623L460.18 61.523L519.536 0H458.751L416.754 22.423L285.806 0L233.335 33.32L182.446 0H130.766ZM0 296.361L177.886 409.785L380 334.679L529.462 379.032L694.686 139.621L760 109.718V73.423L682.526 109.718L515.523 311.559L383.374 286.994L183.966 342.907L0 208.896V296.361ZM0 510.578L168.766 649.74L463.266 476.068L636.926 519.061L760 259.012V219.64L627.806 458.388L458.341 421.056L167.246 583.61L0 432.174V510.578ZM0 692.223L177.384 816.884L514.596 635.562L632.366 753.423L760 541.348V488.818L632.366 649.723L505.476 586.806L181.427 743.223L0 624.223V692.223ZM0 821.882L42.6056 850H137.864L0 773.823V821.882ZM389.15 850L506.418 759.424L643.522 850L760 773.823V719.049L644.526 803.624L512.27 719.049L315.187 850H389.15Z" fill="url(#paint0_linear_603_10815)" fill-opacity="0.05"/>
<rect x="939" width="981" height="850" fill="#152843"/>
<defs>
<linearGradient id="paint0_linear_603_10815" x1="0" y1="425" x2="760" y2="425" gradientUnits="userSpaceOnUse">
<stop stop-color="white"/>
<stop offset="1" stop-color="white" stop-opacity="0"/>
</linearGradient>
</defs>
</svg>
