<svg width="1922" height="731" viewBox="0 0 1922 731" fill="none" xmlns="http://www.w3.org/2000/svg">
<path d="M1920.31 550.98C1669.76 314.77 1332.11 170 960.65 170C589.19 170 251.55 314.77 1 550.98" stroke="white" stroke-opacity="0.1" stroke-width="2" stroke-miterlimit="10" stroke-dasharray="4 4"/>
<path d="M104.734 729.26C322.394 507.53 625.474 370 960.654 370C1295.84 370 1598.92 507.53 1816.58 729.26" stroke="white" stroke-opacity="0.06" stroke-width="2" stroke-miterlimit="10" stroke-dasharray="4 4"/>
<path d="M419.211 729.26C575.241 628.49 761.121 570 960.651 570C1160.19 570 1346.07 628.49 1502.1 729.26" stroke="white" stroke-opacity="0.03" stroke-width="2" stroke-miterlimit="10" stroke-dasharray="4 4"/>
<circle cx="181.312" cy="404" r="50" fill="#19353E"/>
<g clip-path="url(#clip0_606_10818)">
<path d="M194.118 391.788C194.09 391.583 193.914 391.478 193.766 391.464C193.619 391.45 190.544 391.225 190.544 391.225C190.544 391.225 188.406 389.107 188.174 388.868C187.941 388.636 187.484 388.706 187.301 388.755C187.273 388.763 186.837 388.896 186.105 389.121C185.395 387.067 184.136 385.182 181.92 385.182C181.856 385.182 181.793 385.182 181.73 385.189C181.097 384.359 180.323 383.993 179.647 383.993C174.498 384 172.036 390.451 171.262 393.729C169.257 394.348 167.836 394.791 167.653 394.848C166.534 395.199 166.499 395.235 166.352 396.29C166.239 397.085 163.312 419.723 163.312 419.723L186.126 424L198.487 421.327C198.487 421.327 194.146 391.992 194.118 391.788ZM184.853 389.515C184.283 389.691 183.629 389.895 182.926 390.113C182.926 389.98 182.926 389.846 182.926 389.698C182.926 388.425 182.75 387.398 182.461 386.582C183.608 386.722 184.368 388.024 184.853 389.515ZM181.047 386.835C181.364 387.63 181.568 388.77 181.568 390.31C181.568 390.388 181.568 390.458 181.568 390.535C180.316 390.922 178.951 391.344 177.579 391.766C178.353 388.805 179.795 387.377 181.047 386.835ZM179.514 385.386C179.739 385.386 179.964 385.463 180.175 385.611C178.522 386.392 176.749 388.347 176.003 392.259C174.913 392.597 173.844 392.927 172.852 393.237C173.731 390.247 175.813 385.386 179.514 385.386Z" fill="#95BF46"/>
<path d="M193.772 391.464C193.624 391.45 190.55 391.225 190.55 391.225C190.55 391.225 188.411 389.107 188.179 388.868C188.095 388.784 187.975 388.734 187.849 388.713L186.125 423.993L198.485 421.327C198.485 421.327 194.145 391.991 194.117 391.787C194.088 391.583 193.913 391.478 193.772 391.464Z" fill="#5E8E3E"/>
<path d="M181.929 398.295L180.402 402.825C180.402 402.825 179.065 402.115 177.426 402.115C175.027 402.115 174.908 403.62 174.908 404C174.908 406.068 180.304 406.863 180.304 411.717C180.304 415.53 177.884 417.992 174.619 417.992C170.701 417.992 168.703 415.558 168.703 415.558L169.751 412.097C169.751 412.097 171.813 413.863 173.55 413.863C174.683 413.863 175.147 412.969 175.147 412.315C175.147 409.614 170.722 409.494 170.722 405.055C170.722 401.32 173.402 397.704 178.812 397.704C180.902 397.697 181.929 398.295 181.929 398.295Z" fill="white"/>
</g>
<circle cx="441.312" cy="270" r="50" fill="#19353E"/>
<path d="M435.812 248C433.312 248 431.312 250 431.312 252.5C431.312 255 433.312 257 435.812 257H440.312V252.5C440.312 250 438.312 248 435.812 248ZM435.812 260H423.812C421.312 260 419.312 262 419.312 264.5C419.312 267 421.312 269 423.812 269H435.812C438.312 269 440.312 267 440.312 264.5C440.312 262 438.312 260 435.812 260Z" fill="#36C5F0"/>
<path d="M464.312 264.5C464.312 262 462.312 260 459.812 260C457.312 260 455.312 262 455.312 264.5V269H459.812C462.312 269 464.312 267 464.312 264.5ZM452.312 264.5V252.5C452.312 250 450.312 248 447.812 248C445.312 248 443.312 250 443.312 252.5V264.5C443.312 267 445.312 269 447.812 269C450.312 269 452.312 267 452.312 264.5Z" fill="#2EB67D"/>
<path d="M447.812 293C450.312 293 452.312 291 452.312 288.5C452.312 286 450.312 284 447.812 284H443.312V288.5C443.312 290.95 445.312 293 447.812 293ZM447.812 281H459.812C462.312 281 464.312 279 464.312 276.5C464.312 274 462.312 272 459.812 272H447.812C445.312 272 443.312 274 443.312 276.5C443.312 279 445.312 281 447.812 281Z" fill="#ECB22E"/>
<path d="M419.312 276.5C419.312 279 421.312 281 423.812 281C426.312 281 428.312 279 428.312 276.5V272H423.812C421.312 272 419.312 274 419.312 276.5ZM431.312 276.5V288.5C431.312 291 433.312 293 435.812 293C438.312 293 440.312 291 440.312 288.5V276.5C440.312 274 438.312 272 435.812 272C433.312 272 431.312 274 431.312 276.5Z" fill="#E01E5A"/>
<circle cx="701.312" cy="193" r="50" fill="#19353E"/>
<path d="M707.462 193.5C707.462 195.1 707.162 196.75 706.612 198.25C705.112 198.8 703.462 199.1 701.862 199.1C700.212 199.1 698.612 198.8 697.112 198.25C696.562 196.75 696.263 195.1 696.263 193.5C696.263 191.9 696.562 190.25 697.112 188.75C698.612 188.2 700.262 187.9 701.862 187.9C703.462 187.9 705.112 188.2 706.612 188.75C707.162 190.25 707.462 191.85 707.462 193.5ZM724.013 189.75H710.862L720.162 180.45C719.412 179.45 718.613 178.45 717.713 177.6C716.813 176.7 715.862 175.9 714.862 175.15L705.562 184.45V171.3C704.312 171.1 703.062 171 701.812 171C700.562 171 699.312 171.1 698.062 171.3V184.45L688.762 175.15C687.762 175.9 686.762 176.7 685.912 177.6C685.012 178.5 684.213 179.45 683.463 180.45L692.762 189.75H679.613C679.613 189.75 679.312 192.2 679.312 193.5C679.312 194.75 679.413 196 679.613 197.25H692.762L683.463 206.55C684.913 208.6 686.712 210.4 688.762 211.85L698.062 202.55V215.7C699.312 215.9 700.562 216 701.812 216C703.062 216 704.312 215.9 705.562 215.7V202.55L714.862 211.85C715.862 211.1 716.863 210.3 717.713 209.4C718.613 208.5 719.412 207.55 720.162 206.55L710.862 197.25H724.013C724.213 196.05 724.312 194.8 724.312 193.5C724.312 192.2 724.213 190.95 724.013 189.75Z" fill="#FF4A00"/>
<circle cx="961.312" cy="170" r="50" fill="#19353E"/>
<path d="M961.812 193C974.212 193 984.312 182.95 984.312 170.5C984.312 158.05 974.212 148 961.812 148C949.363 148 939.312 158.05 939.312 170.5C939.312 182.9 949.363 193 961.812 193Z" fill="#13B5EA"/>
<path d="M950.065 170.45L953.915 166.6C954.165 166.35 954.115 165.9 953.865 165.65C953.615 165.4 953.215 165.4 952.915 165.65L949.065 169.5L945.215 165.65C944.965 165.4 944.515 165.4 944.265 165.65C944.015 165.9 944.015 166.35 944.265 166.6L948.115 170.45L944.265 174.3C944.065 174.45 944.015 174.75 944.065 174.95C944.115 175.15 944.315 175.4 944.565 175.45C944.815 175.5 945.065 175.45 945.215 175.25L949.065 171.4L952.915 175.25C953.115 175.45 953.415 175.5 953.665 175.4C953.915 175.3 954.115 175.05 954.115 174.75C954.115 174.55 954.065 174.4 953.915 174.25L950.065 170.45ZM972.915 170.45C972.915 171.15 973.465 171.7 974.165 171.7C974.865 171.7 975.415 171.15 975.415 170.45C975.415 169.75 974.865 169.2 974.165 169.2C973.465 169.2 972.915 169.75 972.915 170.45ZM970.515 170.45C970.515 168.45 972.115 166.85 974.115 166.85C976.115 166.85 977.715 168.5 977.715 170.45C977.715 172.4 976.065 174.05 974.115 174.05C972.165 174.05 970.515 172.45 970.515 170.45ZM969.115 170.45C969.115 173.25 971.365 175.5 974.165 175.5C976.965 175.5 979.215 173.25 979.215 170.45C979.215 167.65 976.965 165.4 974.165 165.4C971.365 165.4 969.115 167.65 969.115 170.45ZM968.765 165.5H968.565C967.915 165.5 967.315 165.7 966.815 166.1C966.765 165.8 966.465 165.55 966.115 165.55C965.915 165.55 965.765 165.6 965.615 165.75C965.465 165.9 965.415 166.05 965.415 166.25V174.75C965.415 175.1 965.715 175.4 966.115 175.4C966.465 175.4 966.765 175.1 966.815 174.75V169.5C966.815 167.75 966.965 167.05 968.465 166.85C968.615 166.85 968.765 166.85 968.765 166.85C969.165 166.85 969.465 166.55 969.465 166.15C969.415 165.8 969.115 165.5 968.765 165.5ZM955.565 169.6V169.55C955.965 167.95 957.465 166.8 959.115 166.8C960.815 166.8 962.265 167.95 962.615 169.6H955.565ZM964.015 169.5C963.715 168.1 962.965 166.95 961.765 166.2C960.015 165.1 957.815 165.15 956.165 166.35C954.465 167.55 953.715 169.7 954.165 171.7C954.665 173.7 956.365 175.2 958.465 175.45C959.065 175.5 959.665 175.5 960.265 175.35C960.815 175.2 961.315 175 961.765 174.7C962.265 174.4 962.665 173.95 963.065 173.5C963.065 173.5 963.065 173.5 963.065 173.45C963.315 173.1 963.265 172.6 962.965 172.4C962.715 172.2 962.265 172.15 961.965 172.55C961.915 172.65 961.815 172.75 961.715 172.85C961.465 173.15 961.115 173.45 960.715 173.65C960.215 173.9 959.615 174.05 959.015 174.1C957.015 174.1 955.965 172.7 955.565 171.7C955.515 171.5 955.465 171.3 955.415 171.1V171H962.615C963.665 170.95 964.165 170.25 964.015 169.5Z" fill="white"/>
<circle cx="1480.31" cy="270" r="50" fill="#19353E"/>
<path d="M1491.32 262.818V257.462C1492.77 256.761 1493.67 255.36 1493.72 253.758V253.658C1493.67 251.355 1491.82 249.503 1489.57 249.503H1489.47C1487.17 249.503 1485.32 251.355 1485.32 253.608V253.708C1485.32 255.31 1486.27 256.761 1487.72 257.412V262.768C1485.67 263.068 1483.76 263.919 1482.16 265.22L1467.45 253.808C1467.55 253.408 1467.6 253.057 1467.6 252.657C1467.6 250.755 1466.45 249.053 1464.74 248.352C1462.99 247.652 1460.99 248.002 1459.69 249.353C1458.34 250.705 1457.94 252.707 1458.69 254.409C1459.39 256.161 1461.09 257.262 1462.99 257.312C1463.79 257.312 1464.59 257.112 1465.29 256.711L1479.76 267.973C1477.11 271.978 1477.16 277.233 1479.96 281.187L1475.56 285.592C1475.2 285.492 1474.8 285.442 1474.45 285.392C1472.35 285.392 1470.65 287.094 1470.65 289.196C1470.65 291.298 1472.35 293 1474.45 293C1476.56 293 1478.26 291.298 1478.26 289.196C1478.26 288.846 1478.21 288.445 1478.06 288.095L1482.41 283.74C1486.32 286.743 1491.67 286.994 1495.83 284.391C1499.98 281.788 1502.08 276.883 1501.08 272.028C1500.08 267.272 1496.18 263.569 1491.32 262.818ZM1489.52 280.487C1487.32 280.537 1485.27 279.385 1484.16 277.533C1483.06 275.631 1483.06 273.279 1484.16 271.427C1485.27 269.525 1487.32 268.424 1489.52 268.474C1492.77 268.524 1495.33 271.177 1495.33 274.43C1495.33 277.684 1492.77 280.336 1489.52 280.487Z" fill="#FF7A59"/>
<circle cx="1221.31" cy="193" r="50" fill="#19353E"/>
<g clip-path="url(#clip1_606_10818)">
<path d="M1221.51 171C1209.25 171 1199.31 180.4 1199.31 191.993C1199.31 198.496 1202.44 204.308 1207.35 208.159V216L1214.91 212.042C1216.99 212.657 1219.21 212.987 1221.51 212.987C1233.77 212.987 1243.71 203.587 1243.71 191.993C1243.71 180.4 1233.77 171 1221.51 171Z" fill="url(#paint0_linear_606_10818)"/>
<path d="M1206.74 199.125L1217.99 193.098L1223.82 199.326L1235.87 186.067L1224.62 192.094L1218.8 186.268L1206.74 199.125Z" fill="white"/>
</g>
<circle cx="1740.31" cy="404" r="50" fill="#19353E"/>
<circle cx="1740.81" cy="404.5" r="22.5" fill="url(#paint1_linear_606_10818)"/>
<path d="M1751.76 394.94L1747.74 415.198C1747.74 415.198 1747.17 416.606 1745.63 415.931L1736.35 408.825L1732.98 407.198L1727.31 405.284C1727.31 405.284 1726.44 404.972 1726.36 404.298C1726.27 403.623 1727.34 403.261 1727.34 403.261L1749.91 394.409C1749.9 394.409 1751.76 393.591 1751.76 394.94Z" fill="white"/>
<path d="M1735.65 414.978C1735.65 414.978 1735.38 414.953 1735.04 413.883C1734.7 412.812 1732.99 407.197 1732.99 407.197L1746.62 398.54C1746.62 398.54 1747.41 398.059 1747.38 398.54C1747.38 398.54 1747.53 398.624 1747.1 399.02C1746.68 399.416 1736.4 408.656 1736.4 408.656" fill="#D3E6F2"/>
<path d="M1739.92 411.548L1736.25 414.894C1736.25 414.894 1735.97 415.114 1735.66 414.979L1736.36 408.766" fill="#B6D0E5"/>
<defs>
<linearGradient id="paint0_linear_606_10818" x1="1221.51" y1="170.799" x2="1221.51" y2="217.623" gradientUnits="userSpaceOnUse">
<stop stop-color="#03C6FF"/>
<stop offset="1" stop-color="#0370FF"/>
</linearGradient>
<linearGradient id="paint1_linear_606_10818" x1="1740.81" y1="382" x2="1740.81" y2="427" gradientUnits="userSpaceOnUse">
<stop stop-color="#42BDE9"/>
<stop offset="1" stop-color="#23A8DD"/>
</linearGradient>
<clipPath id="clip0_606_10818">
<rect width="35.1741" height="40" fill="white" transform="translate(163.312 384)"/>
</clipPath>
<clipPath id="clip1_606_10818">
<rect width="44.3973" height="45" fill="white" transform="translate(1199.31 171)"/>
</clipPath>
</defs>
</svg>
